<svg width="1600" height="1200" viewBox="0 0 1600 1200" fill="none" xmlns="http://www.w3.org/2000/svg">
  <defs>
    <radialGradient id="bg1" cx="50%" cy="40%" r="80%" fx="50%" fy="40%">
      <stop offset="0%" stop-color="#fffbe6" stop-opacity="0.95"/>
      <stop offset="60%" stop-color="#ffe4e1" stop-opacity="0.7"/>
      <stop offset="100%" stop-color="#f0f4ff" stop-opacity="0.4"/>
    </radialGradient>
    <radialGradient id="bg2" cx="80%" cy="80%" r="60%" fx="80%" fy="80%">
      <stop offset="0%" stop-color="#ffe4e1" stop-opacity="0.7"/>
      <stop offset="100%" stop-color="#fffbe6" stop-opacity="0"/>
    </radialGradient>
    <radialGradient id="bg3" cx="20%" cy="90%" r="50%" fx="20%" fy="90%">
      <stop offset="0%" stop-color="#b2ebf2" stop-opacity="0.5"/>
      <stop offset="100%" stop-color="#fffbe6" stop-opacity="0"/>
    </radialGradient>
  </defs>
  <rect width="1600" height="1200" fill="url(#bg1)"/>
  <!-- 左端 -->
  <ellipse cx="120" cy="600" rx="180" ry="400" fill="#ffe4e1" fill-opacity="0.45"/>
  <text x="80" y="1100" text-anchor="start" font-size="90" font-family="Arial,sans-serif" fill="#ffb6b9" opacity="0.7" transform="rotate(-18 80,1100)">ありがとう</text>
  <!-- 右端 -->
  <ellipse cx="1480" cy="600" rx="180" ry="400" fill="#b2ebf2" fill-opacity="0.35"/>
  <text x="1520" y="200" text-anchor="end" font-size="70" font-family="Arial,sans-serif" fill="#ffd6e0" opacity="0.7" transform="rotate(12 1520,200)">感謝</text>
  <!-- 下端 -->
  <ellipse cx="800" cy="1150" rx="600" ry="80" fill="#ffb6b9" fill-opacity="0.18"/>
  <text x="800" y="1190" text-anchor="middle" font-size="60" font-family="Arial,sans-serif" fill="#b2ebf2" opacity="0.7">Thanks!</text>
  <!-- 既存の中央・下部の模様も残す -->
  <g opacity="0.55">
    <path d="M800 420c-120-180-420-120-420 120 0 180 240 300 420 480 180-180 420-300 420-480 0-240-300-300-420-120z" fill="#ffb6b9"/>
    <path d="M1300 900c-60-90-210-60-210 60 0 90 120 150 210 240 90-90 210-150 210-240 0-120-150-150-210-60z" fill="#ffd6e0"/>
    <path d="M400 1050c-45-66-156-45-156 45 0 66 90 111 156 177 66-66 156-111 156-177 0-90-111-111-156-45z" fill="#b2ebf2"/>
  </g>
  <g opacity="0.38">
    <text x="50%" y="18%" text-anchor="middle" font-size="120" font-family="Arial,sans-serif" fill="#ffb6b9">ありがとう</text>
    <text x="80%" y="95%" text-anchor="middle" font-size="60" font-family="Arial,sans-serif" fill="#ffd6e0">感謝</text>
    <text x="20%" y="98%" text-anchor="middle" font-size="48" font-family="Arial,sans-serif" fill="#b2ebf2">Thanks!</text>
  </g>
</svg>
